<svg width="111" height="25" viewBox="0 0 111 25" fill="none" xmlns="http://www.w3.org/2000/svg">
<path d="M11.4973 13.318L10.3013 11.862C11.3587 11.7753 12.208 11.5153 12.8493 11.082C13.4907 10.6487 13.9587 10.1113 14.2533 9.47C14.548 8.82867 14.6953 8.16133 14.6953 7.468C14.6953 6.77467 14.522 6.15067 14.1753 5.596C13.8287 5.024 13.2827 4.582 12.5373 4.27C11.792 3.94067 10.8127 3.776 9.59934 3.776C8.92334 3.776 8.21267 3.87133 7.46734 4.062C6.73934 4.25267 6.05467 4.56467 5.41334 4.998C4.78934 5.43133 4.278 6.00333 3.87934 6.714C3.48067 7.40733 3.28134 8.25667 3.28134 9.262C3.28134 9.69533 3.33334 10.094 3.43734 10.458C3.54134 10.822 3.71467 11.2467 3.95734 11.732C3.76667 11.888 3.55 12.0093 3.30734 12.096C3.06467 12.1653 2.81334 12.2 2.55334 12.2C2.10267 12.2 1.69534 12.0787 1.33134 11.836C0.984669 11.5933 0.716003 11.2553 0.525336 10.822C0.334669 10.3713 0.239336 9.86 0.239336 9.288C0.239336 8.3 0.482003 7.39 0.967336 6.558C1.47 5.70867 2.172 4.96333 3.07334 4.322C3.97467 3.68067 5.01467 3.178 6.19334 2.814C7.38934 2.45 8.68934 2.268 10.0933 2.268C11.8613 2.268 13.3087 2.49333 14.4353 2.944C15.5793 3.39467 16.42 3.99267 16.9573 4.738C17.512 5.48333 17.7893 6.31533 17.7893 7.234C17.7893 8.03133 17.6333 8.768 17.3213 9.444C17.0093 10.12 16.5587 10.718 15.9693 11.238C15.3973 11.758 14.73 12.2 13.9673 12.564C13.2047 12.9107 12.3813 13.162 11.4973 13.318ZM5.33534 20.364C5.058 20.364 4.772 20.3207 4.47734 20.234C4.18267 20.1473 3.94867 20.0087 3.77534 19.818C3.966 19.662 4.13934 19.454 4.29534 19.194C4.46867 18.934 4.60734 18.6307 4.71134 18.284C4.83267 17.9373 4.93667 17.5647 5.02334 17.166L6.89534 7.624C7.01667 7.03467 7.164 6.54067 7.33734 6.142C7.528 5.74333 7.788 5.44867 8.11734 5.258C8.464 5.06733 8.906 4.972 9.44334 4.972C9.92867 4.972 10.31 5.06733 10.5873 5.258C10.882 5.44867 11.0553 5.68267 11.1073 5.96C10.83 6.09867 10.6047 6.298 10.4313 6.558C10.2753 6.80067 10.1627 7.078 10.0933 7.39C10.024 7.68467 9.946 8.00533 9.85934 8.352L7.85734 18.18C7.77067 18.6653 7.606 19.0727 7.36334 19.402C7.12067 19.714 6.826 19.948 6.47934 20.104C6.15 20.2773 5.76867 20.364 5.33534 20.364ZM16.6453 23.042C16.0907 23.042 15.588 22.9207 15.1373 22.678C14.704 22.4353 14.2707 21.9153 13.8373 21.118C13.664 20.7887 13.4733 20.338 13.2653 19.766C13.0573 19.194 12.832 18.5527 12.5893 17.842C12.364 17.1313 12.1213 16.412 11.8613 15.684C11.6013 14.956 11.3413 14.2627 11.0813 13.604C10.8213 12.9453 10.5613 12.3647 10.3013 11.862L12.8233 12.902C13.2047 13.162 13.56 13.604 13.8893 14.228C14.2187 14.8347 14.5393 15.528 14.8513 16.308C15.1807 17.0707 15.5273 17.8247 15.8913 18.57C16.2553 19.3153 16.6627 19.974 17.1133 20.546C17.564 21.118 18.084 21.4993 18.6733 21.69C18.5347 22.106 18.292 22.4353 17.9453 22.678C17.5987 22.9207 17.1653 23.042 16.6453 23.042ZM23.1183 20.52C22.1303 20.52 21.2723 20.338 20.5443 19.974C19.8337 19.5927 19.2877 19.0207 18.9063 18.258C18.525 17.4953 18.3343 16.5333 18.3343 15.372C18.3343 14.28 18.4817 13.1967 18.7763 12.122C19.0883 11.03 19.5477 10.042 20.1543 9.158C20.761 8.274 21.5323 7.56333 22.4683 7.026C23.4217 6.48867 24.5397 6.22 25.8223 6.22C26.4983 6.22 27.105 6.31533 27.6423 6.506C28.1797 6.69667 28.6043 7.00867 28.9163 7.442C29.2283 7.87533 29.3843 8.46467 29.3843 9.21C29.3843 10.2153 29.081 11.0647 28.4743 11.758C27.885 12.434 27.0963 12.954 26.1083 13.318C25.1203 13.6647 24.0283 13.838 22.8323 13.838C22.607 13.838 22.3557 13.838 22.0783 13.838C21.8183 13.8207 21.6017 13.8033 21.4283 13.786C21.411 14.0633 21.3937 14.3407 21.3763 14.618C21.359 14.878 21.3503 15.1207 21.3503 15.346C21.3503 16.282 21.5237 17.0187 21.8703 17.556C22.217 18.076 22.8497 18.336 23.7683 18.336C24.5137 18.336 25.181 18.1627 25.7703 17.816C26.3597 17.452 26.819 16.9407 27.1483 16.282C27.391 16.3513 27.5557 16.49 27.6423 16.698C27.729 16.906 27.7723 17.1227 27.7723 17.348C27.7723 17.868 27.5903 18.3707 27.2263 18.856C26.8623 19.3413 26.3337 19.74 25.6403 20.052C24.947 20.364 24.1063 20.52 23.1183 20.52ZM21.6103 12.512C22.1997 12.512 22.7803 12.4513 23.3523 12.33C23.9417 12.2087 24.479 12.018 24.9643 11.758C25.4497 11.4807 25.831 11.134 26.1083 10.718C26.403 10.2847 26.5503 9.782 26.5503 9.21C26.5503 8.70733 26.429 8.33467 26.1863 8.092C25.961 7.832 25.6317 7.702 25.1983 7.702C24.713 7.702 24.2623 7.858 23.8463 8.17C23.4477 8.46467 23.101 8.85467 22.8063 9.34C22.5117 9.82533 22.2603 10.3453 22.0523 10.9C21.8617 11.4547 21.7143 11.992 21.6103 12.512ZM29.2811 24.94C28.6051 24.94 28.1198 24.81 27.8251 24.55C27.5131 24.3073 27.3225 23.9953 27.2531 23.614C27.7731 23.5447 28.2151 23.406 28.5791 23.198C28.9431 22.99 29.2551 22.678 29.5151 22.262C29.7751 21.846 30.0005 21.3 30.1911 20.624C30.3818 19.948 30.5725 19.1247 30.7631 18.154L32.7131 7.52H35.6771L33.3371 19.454C33.1118 20.598 32.8171 21.5773 32.4531 22.392C32.0891 23.224 31.6471 23.8567 31.1271 24.29C30.6071 24.7233 29.9918 24.94 29.2811 24.94ZM30.7891 7.91L31.0231 6.74H32.8431L33.2071 5.336C33.4498 4.4 33.7965 3.63733 34.2471 3.048C34.7151 2.44133 35.3045 1.99933 36.0151 1.722C36.7258 1.42733 37.5491 1.28 38.4851 1.28C38.9531 1.28 39.4038 1.32333 39.8371 1.41C40.2705 1.47933 40.6518 1.60067 40.9811 1.774C41.3105 1.94733 41.5705 2.17267 41.7611 2.45C41.9518 2.71 42.0471 3.03067 42.0471 3.412C42.0471 4.00133 41.8478 4.452 41.4491 4.764C41.0505 5.05867 40.5825 5.206 40.0451 5.206C39.8545 5.206 39.6551 5.18867 39.4471 5.154C39.2565 5.102 39.0918 5.024 38.9531 4.92C39.0571 4.72933 39.1438 4.53 39.2131 4.322C39.2825 4.09667 39.3171 3.86267 39.3171 3.62C39.3171 3.256 39.2218 2.97 39.0311 2.762C38.8578 2.53667 38.5718 2.424 38.1731 2.424C37.5491 2.424 37.0811 2.684 36.7691 3.204C36.4745 3.70667 36.2665 4.296 36.1451 4.972L35.8331 6.74H38.1211L37.9651 7.91H30.7891ZM42.0132 20.52C41.4585 20.52 41.0165 20.364 40.6872 20.052C40.3752 19.74 40.2192 19.3067 40.2192 18.752C40.2192 18.5613 40.2365 18.336 40.2712 18.076C40.3059 17.816 40.3492 17.4953 40.4012 17.114C40.4705 16.7327 40.5659 16.256 40.6872 15.684C40.8085 15.112 40.9472 14.4273 41.1032 13.63C41.2592 12.8327 41.4499 11.888 41.6752 10.796C41.9005 9.704 42.1605 8.456 42.4552 7.052C42.6285 6.064 42.7759 5.102 42.8972 4.166C43.0185 3.21267 43.0792 2.41533 43.0792 1.774C43.0792 1.566 43.0705 1.384 43.0532 1.228C43.0359 1.05467 43.0099 0.898666 42.9752 0.76C43.1485 0.655999 43.3565 0.569332 43.5992 0.499998C43.8419 0.430666 44.0932 0.396 44.3532 0.396C44.8039 0.396 45.2199 0.534666 45.6012 0.811999C45.9999 1.072 46.1992 1.54 46.1992 2.216C46.1992 2.35467 46.1645 2.632 46.0952 3.048C46.0259 3.464 45.9392 3.94933 45.8352 4.504C45.7312 5.04133 45.6185 5.60467 45.4972 6.194C45.3932 6.766 45.2979 7.286 45.2112 7.754C44.7952 9.76467 44.4572 11.4113 44.1972 12.694C43.9372 13.9593 43.7292 14.956 43.5732 15.684C43.4345 16.412 43.3305 16.9493 43.2612 17.296C43.2092 17.6427 43.1745 17.8853 43.1572 18.024C43.1399 18.1627 43.1312 18.284 43.1312 18.388C43.1312 18.648 43.1919 18.856 43.3132 19.012C43.4519 19.168 43.6512 19.2547 43.9112 19.272C43.8592 19.5667 43.7292 19.8093 43.5212 20C43.3305 20.1733 43.1052 20.3033 42.8452 20.39C42.5852 20.4767 42.3079 20.52 42.0132 20.52ZM51.4289 20.52C50.4409 20.52 49.5829 20.338 48.8549 19.974C48.1442 19.5927 47.5982 19.0207 47.2169 18.258C46.8355 17.4953 46.6449 16.5333 46.6449 15.372C46.6449 14.28 46.7922 13.1967 47.0869 12.122C47.3989 11.03 47.8582 10.042 48.4649 9.158C49.0715 8.274 49.8429 7.56333 50.7789 7.026C51.7322 6.48867 52.8502 6.22 54.1329 6.22C54.8089 6.22 55.4155 6.31533 55.9529 6.506C56.4902 6.69667 56.9149 7.00867 57.2269 7.442C57.5389 7.87533 57.6949 8.46467 57.6949 9.21C57.6949 10.2153 57.3915 11.0647 56.7849 11.758C56.1955 12.434 55.4069 12.954 54.4189 13.318C53.4309 13.6647 52.3389 13.838 51.1429 13.838C50.9175 13.838 50.6662 13.838 50.3889 13.838C50.1289 13.8207 49.9122 13.8033 49.7389 13.786C49.7215 14.0633 49.7042 14.3407 49.6869 14.618C49.6695 14.878 49.6609 15.1207 49.6609 15.346C49.6609 16.282 49.8342 17.0187 50.1809 17.556C50.5275 18.076 51.1602 18.336 52.0789 18.336C52.8242 18.336 53.4915 18.1627 54.0809 17.816C54.6702 17.452 55.1295 16.9407 55.4589 16.282C55.7015 16.3513 55.8662 16.49 55.9529 16.698C56.0395 16.906 56.0829 17.1227 56.0829 17.348C56.0829 17.868 55.9009 18.3707 55.5369 18.856C55.1729 19.3413 54.6442 19.74 53.9509 20.052C53.2575 20.364 52.4169 20.52 51.4289 20.52ZM49.9209 12.512C50.5102 12.512 51.0909 12.4513 51.6629 12.33C52.2522 12.2087 52.7895 12.018 53.2749 11.758C53.7602 11.4807 54.1415 11.134 54.4189 10.718C54.7135 10.2847 54.8609 9.782 54.8609 9.21C54.8609 8.70733 54.7395 8.33467 54.4969 8.092C54.2715 7.832 53.9422 7.702 53.5089 7.702C53.0235 7.702 52.5729 7.858 52.1569 8.17C51.7582 8.46467 51.4115 8.85467 51.1169 9.34C50.8222 9.82533 50.5709 10.3453 50.3629 10.9C50.1722 11.4547 50.0249 11.992 49.9209 12.512ZM63.0257 20.52C61.5177 20.52 60.391 20.0953 59.6457 19.246C58.9003 18.3793 58.5277 17.088 58.5277 15.372C58.5277 14.2453 58.6837 13.1447 58.9957 12.07C59.3077 10.978 59.767 9.99867 60.3737 9.132C60.9977 8.248 61.7603 7.546 62.6617 7.026C63.5803 6.48867 64.655 6.22 65.8857 6.22C66.5963 6.22 67.2203 6.324 67.7577 6.532C68.3123 6.72267 68.7457 7.01733 69.0577 7.416C69.3697 7.81467 69.5257 8.326 69.5257 8.95C69.5257 9.73 69.3003 10.302 68.8497 10.666C68.399 11.03 67.8963 11.212 67.3417 11.212C67.1857 11.212 66.995 11.1947 66.7697 11.16C66.5617 11.108 66.397 11.004 66.2757 10.848C66.3623 10.588 66.4403 10.2933 66.5097 9.964C66.5963 9.61733 66.6397 9.32267 66.6397 9.08C66.6397 8.64667 66.5357 8.31733 66.3277 8.092C66.137 7.86667 65.8337 7.754 65.4177 7.754C64.8977 7.754 64.4297 7.92733 64.0137 8.274C63.5977 8.62067 63.2337 9.08 62.9217 9.652C62.627 10.2067 62.3757 10.822 62.1677 11.498C61.9597 12.174 61.8037 12.8413 61.6997 13.5C61.5957 14.1587 61.5437 14.748 61.5437 15.268C61.5437 16.1173 61.7083 16.8453 62.0377 17.452C62.3843 18.0413 63.0083 18.336 63.9097 18.336C64.707 18.336 65.3743 18.102 65.9117 17.634C66.449 17.166 66.8303 16.568 67.0557 15.84C67.385 15.944 67.619 16.1173 67.7577 16.36C67.8963 16.5853 67.9657 16.8627 67.9657 17.192C67.9657 17.7987 67.749 18.3533 67.3157 18.856C66.8997 19.3587 66.319 19.7573 65.5737 20.052C64.8283 20.364 63.979 20.52 63.0257 20.52ZM72.8086 20.546C72.3233 20.546 71.8986 20.39 71.5346 20.078C71.1706 19.766 70.9886 19.3153 70.9886 18.726C70.9886 18.3793 71.0406 17.894 71.1446 17.27C71.2486 16.6287 71.3699 15.9527 71.5086 15.242C71.6473 14.5313 71.7859 13.8553 71.9246 13.214C72.0806 12.5553 72.1933 12.0267 72.2626 11.628L73.0166 7.91H71.1706L71.2746 7.13C72.1066 6.818 72.9299 6.402 73.7446 5.882C74.5593 5.362 75.2786 4.79 75.9026 4.166H76.7086L76.1886 6.74H78.2166L77.9826 7.91H75.9286L74.1346 16.75C74.0826 17.0273 74.0393 17.2787 74.0046 17.504C73.9699 17.712 73.9439 17.9113 73.9266 18.102C73.9093 18.57 73.9959 18.8993 74.1866 19.09C74.3773 19.2633 74.7239 19.298 75.2266 19.194C75.0706 19.5233 74.8713 19.7833 74.6286 19.974C74.4033 20.1647 74.1346 20.3033 73.8226 20.39C73.5106 20.494 73.1726 20.546 72.8086 20.546ZM79.8712 20.52C79.3166 20.52 78.8832 20.364 78.5712 20.052C78.2592 19.74 78.1032 19.3067 78.1032 18.752C78.1032 18.544 78.1206 18.2927 78.1552 17.998C78.1899 17.7033 78.2332 17.4 78.2852 17.088C78.3372 16.7587 78.3892 16.4553 78.4412 16.178C78.5106 15.8833 78.5626 15.632 78.5972 15.424L80.3652 6.74L83.3292 6.428L81.1452 17.296C81.1279 17.4347 81.1019 17.6167 81.0672 17.842C81.0326 18.05 81.0152 18.232 81.0152 18.388C81.0152 18.648 81.0759 18.856 81.1972 19.012C81.3359 19.168 81.5352 19.2547 81.7952 19.272C81.6912 19.7053 81.4486 20.0173 81.0672 20.208C80.7032 20.416 80.3046 20.52 79.8712 20.52ZM82.4972 4.452C81.9426 4.452 81.4832 4.322 81.1192 4.062C80.7552 3.78467 80.5732 3.37733 80.5732 2.84C80.5732 2.268 80.7639 1.852 81.1452 1.592C81.5266 1.31467 81.9946 1.176 82.5492 1.176C83.1039 1.176 83.5632 1.31467 83.9272 1.592C84.2912 1.852 84.4732 2.25067 84.4732 2.788C84.4732 3.36 84.2826 3.78467 83.9012 4.062C83.5199 4.322 83.0519 4.452 82.4972 4.452ZM89.4362 20.52C88.5349 20.52 87.7895 20.3813 87.2002 20.104C86.6282 19.8267 86.1775 19.4627 85.8482 19.012C85.5189 18.544 85.2849 18.0413 85.1462 17.504C85.0249 16.9493 84.9642 16.412 84.9642 15.892C84.9642 14.7133 85.1029 13.552 85.3802 12.408C85.6749 11.264 86.1169 10.224 86.7062 9.288C87.3129 8.352 88.0755 7.60667 88.9942 7.052C89.9302 6.49733 91.0482 6.22 92.3482 6.22C93.2669 6.22 94.0122 6.35867 94.5842 6.636C95.1562 6.91333 95.6069 7.286 95.9362 7.754C96.2829 8.20467 96.5169 8.70733 96.6382 9.262C96.7595 9.79933 96.8202 10.3193 96.8202 10.822C96.8202 12.0007 96.6729 13.1707 96.3782 14.332C96.1009 15.476 95.6589 16.516 95.0522 17.452C94.4629 18.388 93.7002 19.1333 92.7642 19.688C91.8455 20.2427 90.7362 20.52 89.4362 20.52ZM89.9302 18.96C90.4502 18.96 90.9182 18.7867 91.3342 18.44C91.7502 18.0933 92.1142 17.6253 92.4262 17.036C92.7382 16.4293 92.9895 15.762 93.1802 15.034C93.3882 14.2887 93.5442 13.526 93.6482 12.746C93.7522 11.966 93.8042 11.212 93.8042 10.484C93.8042 9.68667 93.6655 9.03667 93.3882 8.534C93.1109 8.03133 92.6082 7.78 91.8802 7.78C91.3602 7.78 90.8835 7.95333 90.4502 8.3C90.0169 8.64667 89.6442 9.11467 89.3322 9.704C89.0375 10.2933 88.7862 10.9607 88.5782 11.706C88.3702 12.434 88.2142 13.1967 88.1102 13.994C88.0235 14.774 87.9802 15.528 87.9802 16.256C87.9802 17.036 88.1189 17.686 88.3962 18.206C88.6909 18.7087 89.2022 18.96 89.9302 18.96ZM108.087 20.52C107.549 20.52 107.116 20.364 106.787 20.052C106.475 19.7573 106.319 19.2633 106.319 18.57C106.319 18.1887 106.371 17.6947 106.475 17.088C106.596 16.4813 106.735 15.84 106.891 15.164C107.047 14.4707 107.203 13.786 107.359 13.11C107.515 12.434 107.645 11.8273 107.749 11.29C107.87 10.7353 107.931 10.302 107.931 9.99C107.931 9.418 107.783 8.98467 107.489 8.69C107.194 8.378 106.804 8.222 106.319 8.222C105.643 8.222 105.071 8.456 104.603 8.924C104.135 9.392 103.753 9.98133 103.459 10.692C103.164 11.3853 102.947 12.0787 102.809 12.772L101.405 20L98.4405 20.312L101.093 6.74L103.563 6.428L103.251 8.768C103.719 7.936 104.343 7.30333 105.123 6.87C105.903 6.43667 106.726 6.22 107.593 6.22C108.65 6.22 109.456 6.49733 110.011 7.052C110.565 7.58933 110.843 8.352 110.843 9.34C110.843 9.82533 110.791 10.3887 110.687 11.03C110.583 11.6713 110.444 12.356 110.271 13.084C110.115 13.7947 109.959 14.488 109.803 15.164C109.647 15.84 109.508 16.4553 109.387 17.01C109.283 17.5647 109.231 17.998 109.231 18.31C109.231 18.57 109.283 18.7867 109.387 18.96C109.491 19.1333 109.699 19.2373 110.011 19.272C109.907 19.7053 109.673 20.0173 109.309 20.208C108.945 20.416 108.537 20.52 108.087 20.52Z" fill="#7F265B"/>
</svg>
